<mxfile host="65bd71144e">
    <diagram id="vOm12N9D87gLISp3J7x5" name="第 1 页">
        <mxGraphModel dx="939" dy="1054" grid="1" gridSize="10" guides="1" tooltips="1" connect="1" arrows="1" fold="1" page="1" pageScale="1" pageWidth="1169" pageHeight="827" background="#ffffff" math="0" shadow="0">
            <root>
                <mxCell id="0"/>
                <mxCell id="1" parent="0"/>
                <mxCell id="793" value="" style="rounded=1;whiteSpace=wrap;html=1;absoluteArcSize=1;arcSize=14;strokeWidth=1;labelBackgroundColor=none;fontColor=#000000;fillColor=none;gradientColor=none;strokeColor=#000000;shadow=0;sketch=0;glass=0;dashed=1;" parent="1" vertex="1">
                    <mxGeometry x="250" y="249.42" width="260" height="110.58" as="geometry"/>
                </mxCell>
                <mxCell id="1088" value="" style="strokeWidth=1;html=1;shape=mxgraph.flowchart.direct_data;whiteSpace=wrap;labelBackgroundColor=none;fontColor=#000000;fillColor=#CCFFCC;gradientColor=none;strokeColor=#82B366;spacingLeft=-7;fontSize=10;fontFamily=Times New Roman;" parent="1" vertex="1">
                    <mxGeometry x="390" y="282.36" width="55" height="28.08" as="geometry"/>
                </mxCell>
                <mxCell id="836" value="" style="rounded=0;whiteSpace=wrap;html=1;absoluteArcSize=1;arcSize=14;strokeWidth=1;labelBackgroundColor=none;fontColor=#000000;fillColor=none;gradientColor=none;strokeColor=#000000;shadow=0;sketch=0;glass=0;" parent="1" vertex="1">
                    <mxGeometry x="640" y="220" width="190" height="370" as="geometry"/>
                </mxCell>
                <mxCell id="840" value="Website" style="swimlane;shadow=0;glass=0;labelBackgroundColor=none;sketch=0;fontSize=11;fontColor=#000000;strokeColor=#82B366;strokeWidth=1;fillColor=#CCFFCC;gradientColor=none;html=1;" parent="1" vertex="1">
                    <mxGeometry x="650" y="249.42" width="170" height="139.9" as="geometry">
                        <mxRectangle x="809" y="238.27" width="120" height="23" as="alternateBounds"/>
                    </mxGeometry>
                </mxCell>
                <mxCell id="901" value="PHP Runtime Environment" style="rounded=0;whiteSpace=wrap;html=1;absoluteArcSize=1;arcSize=14;strokeWidth=1;labelBackgroundColor=none;fontColor=#000000;fillColor=none;gradientColor=none;strokeColor=#000000;shadow=0;sketch=0;glass=0;spacingTop=-80;fontSize=10;dashed=1;fontStyle=1;spacing=0;" parent="840" vertex="1">
                    <mxGeometry x="15" y="33" width="140" height="97" as="geometry"/>
                </mxCell>
                <mxCell id="916" style="edgeStyle=none;html=1;exitX=0.437;exitY=1.007;exitDx=0;exitDy=0;entryX=0.75;entryY=0;entryDx=0;entryDy=0;fontSize=13;fontColor=#000000;strokeColor=#000000;strokeWidth=1;exitPerimeter=0;" parent="840" source="846" target="903" edge="1">
                    <mxGeometry relative="1" as="geometry"/>
                </mxCell>
                <mxCell id="915" style="edgeStyle=none;html=1;exitX=0.25;exitY=0;exitDx=0;exitDy=0;entryX=0.148;entryY=1.007;entryDx=0;entryDy=0;entryPerimeter=0;fontSize=13;fontColor=#000000;strokeColor=#000000;strokeWidth=1;" parent="840" source="903" target="846" edge="1">
                    <mxGeometry relative="1" as="geometry"/>
                </mxCell>
                <UserObject label="Corax Server" treeRoot="1" id="846">
                    <mxCell style="whiteSpace=wrap;html=1;align=center;treeFolding=1;treeMoving=1;newEdgeStyle={&quot;edgeStyle&quot;:&quot;elbowEdgeStyle&quot;,&quot;startArrow&quot;:&quot;none&quot;,&quot;endArrow&quot;:&quot;none&quot;};labelBackgroundColor=none;fontColor=#000000;strokeColor=#3399FF;fillColor=#CCE5FF;gradientColor=none;strokeWidth=1;fontSize=10;fontFamily=Helvetica;" parent="840" vertex="1">
                        <mxGeometry x="25.5" y="50.58" width="119" height="28.27" as="geometry"/>
                    </mxCell>
                </UserObject>
                <UserObject label="" treeRoot="1" id="903">
                    <mxCell style="whiteSpace=wrap;html=1;align=center;treeFolding=1;treeMoving=1;newEdgeStyle={&quot;edgeStyle&quot;:&quot;elbowEdgeStyle&quot;,&quot;startArrow&quot;:&quot;none&quot;,&quot;endArrow&quot;:&quot;none&quot;};labelBackgroundColor=none;fontColor=#000000;strokeColor=#82B366;fillColor=#CCFFCC;gradientColor=none;strokeWidth=1;fontSize=10;fontFamily=Times New Roman;" parent="840" vertex="1">
                        <mxGeometry x="25.5" y="90.58" width="69" height="25.83" as="geometry"/>
                    </mxCell>
                </UserObject>
                <mxCell id="1117" value="Application" style="text;html=1;align=center;verticalAlign=middle;resizable=0;points=[];autosize=1;strokeColor=none;fillColor=none;fontColor=#000000;fontSize=9;" parent="840" vertex="1">
                    <mxGeometry x="30" y="97.58000000000007" width="60" height="20" as="geometry"/>
                </mxCell>
                <mxCell id="1020" value="" style="rounded=1;whiteSpace=wrap;html=1;absoluteArcSize=1;arcSize=14;strokeWidth=1;labelBackgroundColor=none;fontColor=#000000;fillColor=none;gradientColor=none;strokeColor=#000000;shadow=0;sketch=0;glass=0;dashed=1;" parent="1" vertex="1">
                    <mxGeometry x="250" y="370" width="260" height="210" as="geometry"/>
                </mxCell>
                <mxCell id="959" value="Corax Fuzzer" style="swimlane;rounded=0;shadow=0;glass=0;labelBackgroundColor=none;sketch=0;fontSize=10;fontColor=#000000;strokeColor=#3399FF;strokeWidth=1;fillColor=#CCE5FF;gradientColor=none;html=1;horizontal=0;startSize=25;" parent="1" vertex="1">
                    <mxGeometry x="260" y="396.93" width="160" height="95.17" as="geometry"/>
                </mxCell>
                <UserObject label="" treeRoot="1" id="953">
                    <mxCell style="whiteSpace=wrap;html=1;align=center;treeFolding=1;treeMoving=1;newEdgeStyle={&quot;edgeStyle&quot;:&quot;elbowEdgeStyle&quot;,&quot;startArrow&quot;:&quot;none&quot;,&quot;endArrow&quot;:&quot;none&quot;};labelBackgroundColor=none;fontColor=#000000;strokeColor=#3399FF;fillColor=#CCE5FF;gradientColor=none;strokeWidth=1;fontSize=10;fontStyle=0;fontFamily=Times New Roman;" parent="959" vertex="1">
                        <mxGeometry x="98.75" y="13.589999999999998" width="55" height="25.47" as="geometry"/>
                    </mxCell>
                </UserObject>
                <UserObject label="" treeRoot="1" id="1076">
                    <mxCell style="whiteSpace=wrap;html=1;align=center;treeFolding=1;treeMoving=1;newEdgeStyle={&quot;edgeStyle&quot;:&quot;elbowEdgeStyle&quot;,&quot;startArrow&quot;:&quot;none&quot;,&quot;endArrow&quot;:&quot;none&quot;};labelBackgroundColor=none;fontColor=#000000;strokeColor=#3399FF;fillColor=#CCE5FF;gradientColor=none;strokeWidth=1;fontSize=10;fontStyle=0;fontFamily=Times New Roman;" parent="959" vertex="1">
                        <mxGeometry x="31.58" y="55.17" width="55" height="25.47" as="geometry"/>
                    </mxCell>
                </UserObject>
                <mxCell id="928" value="" style="strokeWidth=1;html=1;shape=mxgraph.flowchart.database;whiteSpace=wrap;shadow=0;glass=0;labelBackgroundColor=none;sketch=0;fontSize=10;fillColor=#D0CEE2;strokeColor=#56517E;spacingTop=11;fontFamily=Times New Roman;fontColor=#000000;" parent="959" vertex="1">
                    <mxGeometry x="106.25" y="50.390000000000015" width="40" height="35.03" as="geometry"/>
                </mxCell>
                <mxCell id="1078" style="edgeStyle=none;html=1;exitX=0;exitY=0.5;exitDx=0;exitDy=0;exitPerimeter=0;entryX=1;entryY=0.5;entryDx=0;entryDy=0;fontSize=10;fontColor=#000000;strokeColor=#000000;" parent="959" source="928" target="1076" edge="1">
                    <mxGeometry relative="1" as="geometry"/>
                </mxCell>
                <mxCell id="1143" value="Queue" style="text;html=1;align=center;verticalAlign=middle;resizable=0;points=[];autosize=1;strokeColor=none;fillColor=none;fontColor=#000000;fontSize=9;" parent="959" vertex="1">
                    <mxGeometry x="106.25" y="67.42000000000013" width="40" height="20" as="geometry"/>
                </mxCell>
                <mxCell id="858" value="" style="group;strokeColor=#000000;strokeWidth=1;container=0;" parent="1" vertex="1" connectable="0">
                    <mxGeometry x="240" y="220" width="280" height="370" as="geometry"/>
                </mxCell>
                <mxCell id="1074" style="edgeStyle=none;html=1;exitX=0.5;exitY=1;exitDx=0;exitDy=0;entryX=0.768;entryY=0.005;entryDx=0;entryDy=0;entryPerimeter=0;fontSize=16;fontColor=#000000;strokeColor=#ae4132;strokeWidth=1;fillColor=#fad9d5;shape=flexArrow;width=12.358490566037736;endSize=2.319811320754717;endWidth=14.400142399430402;" parent="1" source="840" target="879" edge="1">
                    <mxGeometry relative="1" as="geometry"/>
                </mxCell>
                <mxCell id="792" style="edgeStyle=none;html=1;entryX=0;entryY=0.5;entryDx=0;entryDy=0;fontColor=#000000;strokeColor=#000000;strokeWidth=1;" parent="1" source="779" target="783" edge="1">
                    <mxGeometry relative="1" as="geometry"/>
                </mxCell>
                <mxCell id="779" value="" style="strokeWidth=1;html=1;shape=mxgraph.flowchart.multi-document;whiteSpace=wrap;fillColor=#CCFFCC;strokeColor=#82B366;fontColor=#000000;align=center;spacingLeft=-7;fontSize=10;fontFamily=Times New Roman;" parent="1" vertex="1">
                    <mxGeometry x="150" y="294.79" width="80" height="41.88" as="geometry"/>
                </mxCell>
                <mxCell id="808" style="edgeStyle=none;html=1;exitX=1;exitY=0.5;exitDx=0;exitDy=0;exitPerimeter=0;fontSize=21;fontColor=#000000;strokeColor=#000000;strokeWidth=1;entryX=-0.003;entryY=0.343;entryDx=0;entryDy=0;entryPerimeter=0;" parent="1" source="797" target="901" edge="1">
                    <mxGeometry relative="1" as="geometry">
                        <mxPoint x="810" y="328" as="targetPoint"/>
                    </mxGeometry>
                </mxCell>
                <mxCell id="809" value="Deploy" style="edgeLabel;align=center;verticalAlign=middle;resizable=0;points=[];fontSize=11;fontColor=#000000;labelBackgroundColor=#FFFFFF;html=1;fontFamily=Lucida Console;" parent="808" vertex="1" connectable="0">
                    <mxGeometry x="-0.0308" y="2" relative="1" as="geometry">
                        <mxPoint x="-62" y="-2" as="offset"/>
                    </mxGeometry>
                </mxCell>
                <mxCell id="1104" value="Deploy" style="edgeLabel;html=1;align=center;verticalAlign=middle;resizable=0;points=[];fontSize=10;fontColor=#000000;labelBackgroundColor=none;" parent="808" vertex="1" connectable="0">
                    <mxGeometry x="-0.452" y="2" relative="1" as="geometry">
                        <mxPoint x="2" y="-4" as="offset"/>
                    </mxGeometry>
                </mxCell>
                <mxCell id="797" value="" style="strokeWidth=1;html=1;shape=mxgraph.flowchart.multi-document;whiteSpace=wrap;fillColor=#CCFFCC;strokeColor=#82B366;fontColor=#000000;align=center;spacingLeft=-8;fontSize=10;fontFamily=Times New Roman;" parent="1" vertex="1">
                    <mxGeometry x="533" y="294.48" width="70" height="42.5" as="geometry"/>
                </mxCell>
                <mxCell id="920" style="edgeStyle=none;html=1;fontSize=13;fontColor=#000000;strokeColor=#000000;strokeWidth=1;entryX=0;entryY=0.25;entryDx=0;entryDy=0;exitX=1;exitY=0.75;exitDx=0;exitDy=0;" parent="1" source="814" target="879" edge="1">
                    <mxGeometry relative="1" as="geometry">
                        <mxPoint x="840" y="500" as="targetPoint"/>
                    </mxGeometry>
                </mxCell>
                <mxCell id="921" value="Visit" style="edgeLabel;html=1;align=center;verticalAlign=middle;resizable=0;points=[];fontSize=10;fontColor=#000000;labelBackgroundColor=none;fontFamily=Lucida Console;" parent="920" vertex="1" connectable="0">
                    <mxGeometry x="-0.5387" y="1" relative="1" as="geometry">
                        <mxPoint x="10" y="-2" as="offset"/>
                    </mxGeometry>
                </mxCell>
                <mxCell id="814" value="Tester" style="shape=actor;whiteSpace=wrap;html=1;shadow=0;glass=0;labelBackgroundColor=none;sketch=0;fontSize=10;strokeColor=#b46504;strokeWidth=1;fillColor=#fad7ac;spacingTop=25;fontFamily=Times New Roman;fontColor=#000000;" parent="1" vertex="1">
                    <mxGeometry x="550" y="349.42" width="40" height="49.37" as="geometry"/>
                </mxCell>
                <mxCell id="837" value="Server Side Environment" style="text;html=1;align=center;verticalAlign=middle;resizable=0;points=[];autosize=1;strokeColor=none;fillColor=none;fontColor=#000000;fontSize=15;fontStyle=1" parent="1" vertex="1">
                    <mxGeometry x="640.0039616276619" y="220.00250000000003" width="190" height="20" as="geometry"/>
                </mxCell>
                <mxCell id="1073" style="edgeStyle=none;html=1;exitX=0.25;exitY=0;exitDx=0;exitDy=0;fontSize=16;fontColor=#000000;strokeColor=#ae4132;strokeWidth=1;fillColor=#fad9d5;shape=flexArrow;width=10.952380952380953;endSize=2.1555555555555554;endWidth=16.18671481230723;" parent="1" source="879" edge="1">
                    <mxGeometry relative="1" as="geometry">
                        <mxPoint x="678" y="390" as="targetPoint"/>
                    </mxGeometry>
                </mxCell>
                <UserObject label="" treeRoot="1" id="879">
                    <mxCell style="whiteSpace=wrap;html=1;align=center;treeFolding=1;treeMoving=1;newEdgeStyle={&quot;edgeStyle&quot;:&quot;elbowEdgeStyle&quot;,&quot;startArrow&quot;:&quot;none&quot;,&quot;endArrow&quot;:&quot;none&quot;};labelBackgroundColor=none;strokeColor=#b85450;fillColor=#f8cecc;strokeWidth=1;fontSize=12;fontFamily=Times New Roman;fontColor=#000000;" parent="1" vertex="1">
                        <mxGeometry x="650" y="410" width="111" height="34.17" as="geometry"/>
                    </mxCell>
                </UserObject>
                <mxCell id="938" value="Data Storage" style="swimlane;rounded=0;shadow=0;glass=0;labelBackgroundColor=none;sketch=0;fontSize=11;fontColor=#000000;strokeColor=#56517E;strokeWidth=1;fillColor=#D0CEE2;gradientColor=none;html=1;spacing=0;" parent="1" vertex="1">
                    <mxGeometry x="650" y="452.1" width="170" height="127.9" as="geometry"/>
                </mxCell>
                <mxCell id="954" value="" style="strokeWidth=1;html=1;shape=mxgraph.flowchart.database;whiteSpace=wrap;shadow=0;glass=0;labelBackgroundColor=none;sketch=0;fontSize=10;fontColor=#000000;fillColor=#D0CEE2;gradientColor=none;strokeColor=#56517E;spacingTop=15;fontFamily=Times New Roman;" parent="938" vertex="1">
                    <mxGeometry x="100" y="30" width="50" height="40" as="geometry"/>
                </mxCell>
                <mxCell id="1097" value="" style="strokeWidth=1;html=1;shape=mxgraph.flowchart.database;whiteSpace=wrap;shadow=0;glass=0;labelBackgroundColor=none;sketch=0;fontSize=10;fontColor=#000000;fillColor=#D0CEE2;gradientColor=none;strokeColor=#56517E;spacingTop=15;fontFamily=Times New Roman;" parent="938" vertex="1">
                    <mxGeometry x="21" y="77.9" width="50" height="40" as="geometry"/>
                </mxCell>
                <mxCell id="1098" value="" style="strokeWidth=1;html=1;shape=mxgraph.flowchart.database;whiteSpace=wrap;shadow=0;glass=0;labelBackgroundColor=none;sketch=0;fontSize=10;fontColor=#000000;fillColor=#D0CEE2;gradientColor=none;strokeColor=#56517E;spacingTop=15;fontFamily=Times New Roman;" parent="938" vertex="1">
                    <mxGeometry x="100" y="77.9" width="50" height="40" as="geometry"/>
                </mxCell>
                <mxCell id="1100" value="Corpus" style="strokeWidth=1;html=1;shape=mxgraph.flowchart.database;whiteSpace=wrap;shadow=0;glass=0;labelBackgroundColor=none;sketch=0;fontSize=10;fontColor=#000000;fillColor=#D0CEE2;gradientColor=none;strokeColor=#56517E;spacingTop=10;fontFamily=Helvetica;" parent="938" vertex="1">
                    <mxGeometry x="21" y="30.000000000000007" width="50" height="40" as="geometry"/>
                </mxCell>
                <mxCell id="1123" value="New Found" style="text;html=1;align=center;verticalAlign=middle;resizable=0;points=[];autosize=1;strokeColor=none;fillColor=none;fontColor=#000000;fontSize=9;" parent="938" vertex="1">
                    <mxGeometry x="95" y="41.00000000000006" width="60" height="20" as="geometry"/>
                </mxCell>
                <mxCell id="1124" value="Paths" style="text;html=1;align=center;verticalAlign=middle;resizable=0;points=[];autosize=1;strokeColor=none;fillColor=none;fontColor=#000000;fontSize=9;" parent="938" vertex="1">
                    <mxGeometry x="105" y="51.000000000000114" width="40" height="20" as="geometry"/>
                </mxCell>
                <mxCell id="1125" value="Captured" style="text;html=1;align=center;verticalAlign=middle;resizable=0;points=[];autosize=1;strokeColor=none;fillColor=none;fontColor=#000000;fontSize=9;" parent="938" vertex="1">
                    <mxGeometry x="21" y="88.90000000000009" width="50" height="20" as="geometry"/>
                </mxCell>
                <mxCell id="1126" value="Inputs" style="text;html=1;align=center;verticalAlign=middle;resizable=0;points=[];autosize=1;strokeColor=none;fillColor=none;fontColor=#000000;fontSize=9;" parent="938" vertex="1">
                    <mxGeometry x="26" y="97.90000000000009" width="40" height="20" as="geometry"/>
                </mxCell>
                <mxCell id="1128" value="New Found" style="text;html=1;align=center;verticalAlign=middle;resizable=0;points=[];autosize=1;strokeColor=none;fillColor=none;fontColor=#000000;fontSize=9;" parent="938" vertex="1">
                    <mxGeometry x="95" y="88.90000000000009" width="60" height="20" as="geometry"/>
                </mxCell>
                <mxCell id="1127" value="Hits" style="text;html=1;align=center;verticalAlign=middle;resizable=0;points=[];autosize=1;strokeColor=none;fillColor=none;fontColor=#000000;fontSize=9;" parent="938" vertex="1">
                    <mxGeometry x="110" y="97.90000000000009" width="30" height="20" as="geometry"/>
                </mxCell>
                <mxCell id="945" style="edgeStyle=none;html=1;fontSize=15;fontColor=#000000;strokeColor=#ae4132;strokeWidth=1;exitX=0.864;exitY=1.024;exitDx=0;exitDy=0;exitPerimeter=0;shape=flexArrow;fillColor=#fad9d5;endWidth=11.547619047619047;endSize=6.554166666666666;width=11.726190476190476;entryX=0.756;entryY=0;entryDx=0;entryDy=0;entryPerimeter=0;" parent="1" source="846" target="938" edge="1">
                    <mxGeometry relative="1" as="geometry">
                        <mxPoint x="846" y="370" as="sourcePoint"/>
                        <mxPoint x="778" y="450" as="targetPoint"/>
                    </mxGeometry>
                </mxCell>
                <mxCell id="1040" value="Dump" style="edgeLabel;html=1;align=center;verticalAlign=middle;resizable=0;points=[];fontSize=11;fontColor=#000000;labelBackgroundColor=none;fontFamily=Lucida Console;" parent="945" vertex="1" connectable="0">
                    <mxGeometry x="0.3986" y="-1" relative="1" as="geometry">
                        <mxPoint x="26" y="-16" as="offset"/>
                    </mxGeometry>
                </mxCell>
                <mxCell id="860" value="Client Side Environment" style="text;html=1;align=center;verticalAlign=middle;resizable=0;points=[];autosize=1;strokeColor=none;fillColor=none;fontColor=#000000;fontSize=15;fontStyle=1" parent="1" vertex="1">
                    <mxGeometry x="291.25301075268817" y="219.9989732142857" width="190" height="20" as="geometry"/>
                </mxCell>
                <mxCell id="929" value="" style="strokeWidth=1;html=1;shape=mxgraph.flowchart.multi-document;whiteSpace=wrap;fillColor=#eeeeee;strokeColor=#36393d;fontColor=#000000;align=center;spacingLeft=-9;fontSize=10;fontFamily=Times New Roman;" parent="1" vertex="1">
                    <mxGeometry x="435" y="404.16999999999996" width="60" height="38.17" as="geometry"/>
                </mxCell>
                <UserObject label="" treeRoot="1" id="783">
                    <mxCell style="whiteSpace=wrap;html=1;align=center;treeFolding=1;treeMoving=1;newEdgeStyle={&quot;edgeStyle&quot;:&quot;elbowEdgeStyle&quot;,&quot;startArrow&quot;:&quot;none&quot;,&quot;endArrow&quot;:&quot;none&quot;};labelBackgroundColor=none;strokeColor=#3399FF;fillColor=#CCE5FF;strokeWidth=1;fontSize=10;fontStyle=0;fontFamily=Times New Roman;fontColor=#000000;rounded=0;glass=0;shadow=0;sketch=0;gradientColor=none;perimeterSpacing=0;" parent="1" vertex="1">
                        <mxGeometry x="280" y="299.33" width="70" height="34.07" as="geometry"/>
                    </mxCell>
                </UserObject>
                <mxCell id="788" value="" style="strokeWidth=1;html=1;shape=mxgraph.flowchart.direct_data;whiteSpace=wrap;labelBackgroundColor=none;fontColor=#000000;fillColor=#CCFFCC;gradientColor=none;strokeColor=#82B366;spacingLeft=-7;fontSize=10;fontFamily=Times New Roman;" parent="1" vertex="1">
                    <mxGeometry x="390" y="321.34000000000003" width="55" height="28.08" as="geometry"/>
                </mxCell>
                <mxCell id="802" value="" style="strokeWidth=1;html=1;shape=mxgraph.flowchart.annotation_2;align=left;labelPosition=right;pointerEvents=1;shadow=0;glass=0;labelBackgroundColor=none;sketch=0;fontSize=21;fontColor=#000000;fillColor=none;gradientColor=none;strokeColor=#000000;" parent="1" vertex="1">
                    <mxGeometry x="350" y="296.36" width="40" height="40" as="geometry"/>
                </mxCell>
                <mxCell id="1089" style="edgeStyle=none;html=1;exitX=0;exitY=0.5;exitDx=0;exitDy=0;exitPerimeter=0;entryX=0;entryY=0.5;entryDx=0;entryDy=0;entryPerimeter=0;fontSize=10;fontColor=#000000;strokeColor=#000000;" parent="1" source="789" target="797" edge="1">
                    <mxGeometry relative="1" as="geometry"/>
                </mxCell>
                <mxCell id="789" value="" style="strokeWidth=1;html=1;shape=mxgraph.flowchart.annotation_2;align=left;labelPosition=right;pointerEvents=1;labelBackgroundColor=none;fontColor=#000000;fillColor=#FFFFFF;gradientColor=none;rotation=-180;strokeColor=#000000;" parent="1" vertex="1">
                    <mxGeometry x="445" y="295.1" width="25" height="41.26" as="geometry"/>
                </mxCell>
                <mxCell id="1027" style="edgeStyle=none;html=1;entryX=0;entryY=0.5;entryDx=0;entryDy=0;fontSize=11;fontColor=#000000;strokeColor=#000000;strokeWidth=1;exitX=1;exitY=0.5;exitDx=0;exitDy=0;exitPerimeter=0;" parent="1" source="996" target="953" edge="1">
                    <mxGeometry relative="1" as="geometry">
                        <mxPoint x="340" y="422.1" as="sourcePoint"/>
                    </mxGeometry>
                </mxCell>
                <mxCell id="996" value="" style="strokeWidth=1;html=1;shape=mxgraph.flowchart.multi-document;whiteSpace=wrap;fillColor=#eeeeee;strokeColor=#36393d;fontColor=#000000;align=center;spacingLeft=-5;fontSize=10;fontFamily=Times New Roman;" parent="1" vertex="1">
                    <mxGeometry x="292.51" y="405.52" width="53.13" height="35.47" as="geometry"/>
                </mxCell>
                <mxCell id="1022" value="Corax Client" style="text;html=1;align=center;verticalAlign=middle;resizable=0;points=[];autosize=1;strokeColor=none;fillColor=none;fontColor=#000000;fontSize=16;fontStyle=1" parent="1" vertex="1">
                    <mxGeometry x="325" y="369.9994223018361" width="110" height="20" as="geometry"/>
                </mxCell>
                <mxCell id="1091" style="edgeStyle=none;html=1;exitX=0;exitY=0.5;exitDx=0;exitDy=0;entryX=1;entryY=0.5;entryDx=0;entryDy=0;entryPerimeter=0;fontSize=10;fontColor=#000000;strokeColor=#000000;" parent="1" source="1023" target="1090" edge="1">
                    <mxGeometry relative="1" as="geometry"/>
                </mxCell>
                <mxCell id="1023" value="Corax Tainter" style="swimlane;rounded=0;shadow=0;glass=0;labelBackgroundColor=none;sketch=0;fontSize=10;fontColor=#000000;strokeColor=#3399FF;strokeWidth=1;fillColor=#CCE5FF;gradientColor=none;html=1;horizontal=0;startSize=25;" parent="1" vertex="1">
                    <mxGeometry x="260" y="502.0999999999999" width="160" height="70" as="geometry"/>
                </mxCell>
                <mxCell id="1045" value="" style="endArrow=classic;startArrow=classic;html=1;fontSize=13;fontColor=#000000;strokeColor=#B85450;strokeWidth=2;entryX=0;entryY=0.5;entryDx=0;entryDy=0;exitX=1;exitY=0.5;exitDx=0;exitDy=0;exitPerimeter=0;fillColor=#f8cecc;" parent="1" source="929" target="879" edge="1">
                    <mxGeometry width="50" height="50" relative="1" as="geometry">
                        <mxPoint x="530" y="490" as="sourcePoint"/>
                        <mxPoint x="590" y="444" as="targetPoint"/>
                    </mxGeometry>
                </mxCell>
                <mxCell id="1072" value="&lt;span style=&quot;font-family: &amp;#34;helvetica&amp;#34; ; font-size: 9px&quot;&gt;Data Synchronous&lt;/span&gt;" style="shape=singleArrow;direction=west;whiteSpace=wrap;html=1;rounded=0;shadow=0;glass=0;labelBackgroundColor=none;sketch=0;fontSize=11;strokeColor=#56517E;strokeWidth=1;fillColor=#D0CEE2;horizontal=1;labelPosition=center;verticalLabelPosition=middle;align=center;verticalAlign=middle;spacingTop=-2;fontFamily=Lucida Console;fontColor=#000000;spacing=0;spacingLeft=5;" parent="1" vertex="1">
                    <mxGeometry x="520" y="486.05" width="130" height="60" as="geometry"/>
                </mxCell>
                <mxCell id="794" value="Instrumention" style="text;html=1;align=center;verticalAlign=middle;resizable=0;points=[];autosize=1;strokeColor=none;fillColor=none;fontColor=#000000;fontSize=16;fontStyle=1" parent="1" vertex="1">
                    <mxGeometry x="319.99555555555554" y="249.42000000000002" width="120" height="20" as="geometry"/>
                </mxCell>
                <mxCell id="1077" style="edgeStyle=none;html=1;exitX=0.5;exitY=0;exitDx=0;exitDy=0;entryX=0.5;entryY=0.88;entryDx=0;entryDy=0;entryPerimeter=0;fontSize=10;fontColor=#000000;strokeColor=#000000;" parent="1" source="1076" target="996" edge="1">
                    <mxGeometry relative="1" as="geometry"/>
                </mxCell>
                <mxCell id="1093" style="edgeStyle=none;html=1;exitX=1;exitY=0.5;exitDx=0;exitDy=0;entryX=0;entryY=0.5;entryDx=0;entryDy=0;entryPerimeter=0;fontSize=10;fontColor=#000000;strokeColor=#000000;" parent="1" source="1079" target="1092" edge="1">
                    <mxGeometry relative="1" as="geometry"/>
                </mxCell>
                <UserObject label="" treeRoot="1" id="1079">
                    <mxCell style="whiteSpace=wrap;html=1;align=center;treeFolding=1;treeMoving=1;newEdgeStyle={&quot;edgeStyle&quot;:&quot;elbowEdgeStyle&quot;,&quot;startArrow&quot;:&quot;none&quot;,&quot;endArrow&quot;:&quot;none&quot;};labelBackgroundColor=none;fontColor=#000000;strokeColor=#3399FF;fillColor=#CCE5FF;gradientColor=none;strokeWidth=1;fontSize=10;fontStyle=0;fontFamily=Times New Roman;" parent="1" vertex="1">
                        <mxGeometry x="358.75" y="524.3599999999999" width="55" height="25.47" as="geometry"/>
                    </mxCell>
                </UserObject>
                <mxCell id="1082" style="edgeStyle=none;html=1;exitX=1;exitY=0.5;exitDx=0;exitDy=0;exitPerimeter=0;entryX=0;entryY=0.5;entryDx=0;entryDy=0;fontSize=10;fontColor=#000000;strokeColor=#000000;" parent="1" source="1081" target="1079" edge="1">
                    <mxGeometry relative="1" as="geometry"/>
                </mxCell>
                <mxCell id="1081" value="" style="strokeWidth=1;html=1;shape=mxgraph.flowchart.multi-document;whiteSpace=wrap;fillColor=#eeeeee;strokeColor=#36393d;fontColor=#000000;align=center;spacingLeft=-5;fontSize=10;fontFamily=Times New Roman;" parent="1" vertex="1">
                    <mxGeometry x="292.51" y="519.3599999999999" width="53.13" height="35.47" as="geometry"/>
                </mxCell>
                <mxCell id="1083" style="edgeStyle=none;html=1;exitX=0.5;exitY=1;exitDx=0;exitDy=0;exitPerimeter=0;entryX=0.5;entryY=0;entryDx=0;entryDy=0;fontSize=10;fontColor=#000000;strokeColor=#000000;" parent="1" source="928" target="1079" edge="1">
                    <mxGeometry relative="1" as="geometry"/>
                </mxCell>
                <mxCell id="1090" value="" style="strokeWidth=1;html=1;shape=mxgraph.flowchart.multi-document;whiteSpace=wrap;fillColor=#fff2cc;strokeColor=#d6b656;align=center;spacingLeft=-7;fontSize=10;fontFamily=Times New Roman;fontColor=#000000;" parent="1" vertex="1">
                    <mxGeometry x="150" y="518.4100000000001" width="75" height="37.9" as="geometry"/>
                </mxCell>
                <mxCell id="1094" style="edgeStyle=none;html=1;exitX=0.5;exitY=0;exitDx=0;exitDy=0;exitPerimeter=0;entryX=0.5;entryY=0.88;entryDx=0;entryDy=0;entryPerimeter=0;fontSize=10;fontColor=#000000;strokeColor=#000000;" parent="1" source="1092" target="929" edge="1">
                    <mxGeometry relative="1" as="geometry"/>
                </mxCell>
                <mxCell id="1092" value="" style="strokeWidth=1;html=1;shape=mxgraph.flowchart.multi-document;whiteSpace=wrap;fillColor=#eeeeee;strokeColor=#36393d;fontColor=#000000;align=center;spacingLeft=-9;fontSize=10;fontFamily=Times New Roman;" parent="1" vertex="1">
                    <mxGeometry x="435" y="518.14" width="60" height="38.17" as="geometry"/>
                </mxCell>
                <mxCell id="958" style="edgeStyle=none;html=1;exitX=1;exitY=0.5;exitDx=0;exitDy=0;entryX=0;entryY=0.5;entryDx=0;entryDy=0;entryPerimeter=0;fontSize=15;fontColor=#000000;strokeColor=#000000;strokeWidth=1;" parent="1" source="953" target="929" edge="1">
                    <mxGeometry relative="1" as="geometry"/>
                </mxCell>
                <mxCell id="1052" style="edgeStyle=none;html=1;exitX=0.234;exitY=0.983;exitDx=0;exitDy=0;exitPerimeter=0;entryX=1;entryY=0.5;entryDx=0;entryDy=0;entryPerimeter=0;fontSize=13;fontColor=#000000;strokeColor=#000000;strokeWidth=1;" parent="1" source="929" target="928" edge="1">
                    <mxGeometry relative="1" as="geometry">
                        <Array as="points">
                            <mxPoint x="449" y="465"/>
                        </Array>
                    </mxGeometry>
                </mxCell>
                <mxCell id="1105" value="PHP Application" style="text;html=1;align=center;verticalAlign=middle;resizable=0;points=[];autosize=1;strokeColor=none;fillColor=none;fontColor=#000000;fontSize=9;" parent="1" vertex="1">
                    <mxGeometry x="145" y="301.34000000000003" width="80" height="20" as="geometry"/>
                </mxCell>
                <mxCell id="1106" value="Source Code" style="text;html=1;align=center;verticalAlign=middle;resizable=0;points=[];autosize=1;strokeColor=none;fillColor=none;fontColor=#000000;fontSize=9;" parent="1" vertex="1">
                    <mxGeometry x="150" y="310.44" width="70" height="20" as="geometry"/>
                </mxCell>
                <mxCell id="1107" value="Corax" style="text;html=1;align=center;verticalAlign=middle;resizable=0;points=[];autosize=1;strokeColor=none;fillColor=none;fontColor=#000000;fontSize=9;" parent="1" vertex="1">
                    <mxGeometry x="295" y="299.33" width="40" height="20" as="geometry"/>
                </mxCell>
                <mxCell id="1108" value="Instrumenter" style="text;html=1;align=center;verticalAlign=middle;resizable=0;points=[];autosize=1;strokeColor=none;fillColor=none;fontColor=#000000;fontSize=9;" parent="1" vertex="1">
                    <mxGeometry x="280" y="310.44" width="70" height="20" as="geometry"/>
                </mxCell>
                <mxCell id="1109" value="Basic" style="text;html=1;align=center;verticalAlign=middle;resizable=0;points=[];autosize=1;strokeColor=none;fillColor=none;fontColor=#000000;fontSize=9;" parent="1" vertex="1">
                    <mxGeometry x="394" y="281.34000000000003" width="40" height="20" as="geometry"/>
                </mxCell>
                <mxCell id="1110" value="Blocks" style="text;html=1;align=center;verticalAlign=middle;resizable=0;points=[];autosize=1;strokeColor=none;fillColor=none;fontColor=#000000;fontSize=9;" parent="1" vertex="1">
                    <mxGeometry x="394" y="292.44000000000005" width="40" height="20" as="geometry"/>
                </mxCell>
                <mxCell id="1112" value="Sink" style="text;html=1;align=center;verticalAlign=middle;resizable=0;points=[];autosize=1;strokeColor=none;fillColor=none;fontColor=#000000;fontSize=9;" parent="1" vertex="1">
                    <mxGeometry x="399" y="319.33" width="30" height="20" as="geometry"/>
                </mxCell>
                <mxCell id="1113" value="Functions" style="text;html=1;align=center;verticalAlign=middle;resizable=0;points=[];autosize=1;strokeColor=none;fillColor=none;fontColor=#000000;fontSize=9;" parent="1" vertex="1">
                    <mxGeometry x="389" y="330.44" width="50" height="20" as="geometry"/>
                </mxCell>
                <mxCell id="1114" value="Instrumented" style="text;html=1;align=center;verticalAlign=middle;resizable=0;points=[];autosize=1;strokeColor=none;fillColor=none;fontColor=#000000;fontSize=9;" parent="1" vertex="1">
                    <mxGeometry x="529" y="301.33000000000004" width="70" height="20" as="geometry"/>
                </mxCell>
                <mxCell id="1115" value="Source Code" style="text;html=1;align=center;verticalAlign=middle;resizable=0;points=[];autosize=1;strokeColor=none;fillColor=none;fontColor=#000000;fontSize=9;" parent="1" vertex="1">
                    <mxGeometry x="529" y="313.4" width="70" height="20" as="geometry"/>
                </mxCell>
                <mxCell id="1116" value="PHP" style="text;html=1;align=center;verticalAlign=middle;resizable=0;points=[];autosize=1;strokeColor=none;fillColor=none;fontColor=#000000;fontSize=9;" parent="1" vertex="1">
                    <mxGeometry x="695" y="338.00000000000006" width="30" height="20" as="geometry"/>
                </mxCell>
                <mxCell id="1118" value="Web Server" style="text;html=1;align=center;verticalAlign=middle;resizable=0;points=[];autosize=1;strokeColor=none;fillColor=none;fontColor=#000000;fontSize=9;" parent="1" vertex="1">
                    <mxGeometry x="675.5" y="424.1700000000001" width="60" height="20" as="geometry"/>
                </mxCell>
                <mxCell id="1119" value="High Performance" style="text;html=1;align=center;verticalAlign=middle;resizable=0;points=[];autosize=1;strokeColor=none;fillColor=none;fontColor=#000000;fontSize=9;" parent="1" vertex="1">
                    <mxGeometry x="660.5" y="410.00000000000006" width="90" height="20" as="geometry"/>
                </mxCell>
                <mxCell id="1121" value="Vulnerability" style="text;html=1;align=center;verticalAlign=middle;resizable=0;points=[];autosize=1;strokeColor=none;fillColor=none;fontColor=#000000;fontSize=9;" parent="1" vertex="1">
                    <mxGeometry x="152" y="523.36" width="60" height="20" as="geometry"/>
                </mxCell>
                <mxCell id="1122" value="Reports" style="text;html=1;align=center;verticalAlign=middle;resizable=0;points=[];autosize=1;strokeColor=none;fillColor=none;fontColor=#000000;fontSize=9;" parent="1" vertex="1">
                    <mxGeometry x="156" y="532.83" width="50" height="20" as="geometry"/>
                </mxCell>
                <mxCell id="1132" value="Request &amp;amp;" style="text;html=1;align=center;verticalAlign=middle;resizable=0;points=[];autosize=1;strokeColor=none;fillColor=none;fontColor=#000000;fontSize=9;" parent="1" vertex="1">
                    <mxGeometry x="544" y="407.52000000000015" width="60" height="20" as="geometry"/>
                </mxCell>
                <mxCell id="1133" value="Coverage Feedback" style="text;html=1;align=center;verticalAlign=middle;resizable=0;points=[];autosize=1;strokeColor=none;fillColor=none;fontColor=#000000;fontSize=9;" parent="1" vertex="1">
                    <mxGeometry x="529" y="421.17000000000013" width="100" height="20" as="geometry"/>
                </mxCell>
                <mxCell id="1134" value="Mutated" style="text;html=1;align=center;verticalAlign=middle;resizable=0;points=[];autosize=1;strokeColor=none;fillColor=none;fontColor=#000000;fontSize=9;" parent="1" vertex="1">
                    <mxGeometry x="436.25" y="409.0000000000001" width="50" height="20" as="geometry"/>
                </mxCell>
                <mxCell id="1135" value="Inputs" style="text;html=1;align=center;verticalAlign=middle;resizable=0;points=[];autosize=1;strokeColor=none;fillColor=none;fontColor=#000000;fontSize=9;" parent="1" vertex="1">
                    <mxGeometry x="441.25" y="419.9900000000001" width="40" height="20" as="geometry"/>
                </mxCell>
                <mxCell id="1136" value="Tainted" style="text;html=1;align=center;verticalAlign=middle;resizable=0;points=[];autosize=1;strokeColor=none;fillColor=none;fontColor=#000000;fontSize=9;" parent="1" vertex="1">
                    <mxGeometry x="441.25" y="523.3600000000001" width="40" height="20" as="geometry"/>
                </mxCell>
                <mxCell id="1137" value="Inputs" style="text;html=1;align=center;verticalAlign=middle;resizable=0;points=[];autosize=1;strokeColor=none;fillColor=none;fontColor=#000000;fontSize=9;" parent="1" vertex="1">
                    <mxGeometry x="441.25" y="532.8300000000002" width="40" height="20" as="geometry"/>
                </mxCell>
                <mxCell id="1138" value="Corax" style="text;html=1;align=center;verticalAlign=middle;resizable=0;points=[];autosize=1;strokeColor=none;fillColor=none;fontColor=#000000;fontSize=9;" parent="1" vertex="1">
                    <mxGeometry x="366.25" y="406.5200000000001" width="40" height="20" as="geometry"/>
                </mxCell>
                <mxCell id="1139" value="Mutator" style="text;html=1;align=center;verticalAlign=middle;resizable=0;points=[];autosize=1;strokeColor=none;fillColor=none;fontColor=#000000;fontSize=9;" parent="1" vertex="1">
                    <mxGeometry x="361.25" y="418.0800000000001" width="50" height="20" as="geometry"/>
                </mxCell>
                <mxCell id="1140" value="Corax" style="text;html=1;align=center;verticalAlign=middle;resizable=0;points=[];autosize=1;strokeColor=none;fillColor=none;fontColor=#000000;fontSize=9;" parent="1" vertex="1">
                    <mxGeometry x="299.08" y="449.1000000000001" width="40" height="20" as="geometry"/>
                </mxCell>
                <mxCell id="1141" value="Parser" style="text;html=1;align=center;verticalAlign=middle;resizable=0;points=[];autosize=1;strokeColor=none;fillColor=none;fontColor=#000000;fontSize=9;" parent="1" vertex="1">
                    <mxGeometry x="299.08" y="460.0000000000001" width="40" height="20" as="geometry"/>
                </mxCell>
                <mxCell id="1142" value="Inputs" style="text;html=1;align=center;verticalAlign=middle;resizable=0;points=[];autosize=1;strokeColor=none;fillColor=none;fontColor=#000000;fontSize=9;" parent="1" vertex="1">
                    <mxGeometry x="366.25" y="454.10000000000014" width="40" height="20" as="geometry"/>
                </mxCell>
                <mxCell id="1145" value="Input" style="text;html=1;align=center;verticalAlign=middle;resizable=0;points=[];autosize=1;strokeColor=none;fillColor=none;fontColor=#000000;fontSize=9;" parent="1" vertex="1">
                    <mxGeometry x="295" y="407.52000000000015" width="40" height="20" as="geometry"/>
                </mxCell>
                <mxCell id="1146" value="Fields" style="text;html=1;align=center;verticalAlign=middle;resizable=0;points=[];autosize=1;strokeColor=none;fillColor=none;fontColor=#000000;fontSize=9;" parent="1" vertex="1">
                    <mxGeometry x="295" y="420.08000000000015" width="40" height="20" as="geometry"/>
                </mxCell>
                <mxCell id="1147" value="Corax" style="text;html=1;align=center;verticalAlign=middle;resizable=0;points=[];autosize=1;strokeColor=none;fillColor=none;fontColor=#000000;fontSize=9;" parent="1" vertex="1">
                    <mxGeometry x="366.25" y="522.3600000000001" width="40" height="20" as="geometry"/>
                </mxCell>
                <mxCell id="1148" value="Hunter" style="text;html=1;align=center;verticalAlign=middle;resizable=0;points=[];autosize=1;strokeColor=none;fillColor=none;fontColor=#000000;fontSize=9;" parent="1" vertex="1">
                    <mxGeometry x="366.25" y="531.8300000000002" width="40" height="20" as="geometry"/>
                </mxCell>
                <mxCell id="1149" value="Attack" style="text;html=1;align=center;verticalAlign=middle;resizable=0;points=[];autosize=1;strokeColor=none;fillColor=none;fontColor=#000000;fontSize=9;" parent="1" vertex="1">
                    <mxGeometry x="295" y="522.3600000000002" width="40" height="20" as="geometry"/>
                </mxCell>
                <mxCell id="1150" value="Vectors" style="text;html=1;align=center;verticalAlign=middle;resizable=0;points=[];autosize=1;strokeColor=none;fillColor=none;fontColor=#000000;fontSize=9;" parent="1" vertex="1">
                    <mxGeometry x="290" y="532.8300000000003" width="50" height="20" as="geometry"/>
                </mxCell>
            </root>
        </mxGraphModel>
    </diagram>
</mxfile>